<?xml version="1.0" standalone="no"?>
<!DOCTYPE svg PUBLIC "-//W3C//DTD SVG 20010904//EN"
 "http://www.w3.org/TR/2001/REC-SVG-20010904/DTD/svg10.dtd">
<svg version="1.0" xmlns="http://www.w3.org/2000/svg"
 width="155.000000pt" height="155.000000pt" viewBox="0 0 155.000000 155.000000"
 preserveAspectRatio="xMidYMid meet">
<metadata>
Created by potrace 1.14, written by Peter Selinger 2001-2017
</metadata>
<g transform="translate(0.000000,155.000000) scale(0.100000,-0.100000)"
fill="#000000" stroke="none">
<path d="M741 1452 c-73 -15 -168 -55 -233 -100 -58 -41 -98 -83 -233 -247
-43 -52 -133 -159 -205 -244 -71 -84 -70 -74 -14 -141 61 -72 224 -267 309
-370 92 -113 203 -190 325 -226 61 -18 160 -31 189 -24 24 5 23 6 -18 55 -24
28 -55 64 -70 80 -15 17 -58 67 -95 113 -37 45 -73 82 -79 82 -5 0 -8 3 -4 6
3 4 -24 41 -61 83 -105 121 -158 183 -191 225 -35 43 -37 34 26 105 12 14 20
28 17 33 -3 5 -2 7 3 6 5 -2 47 42 93 97 46 55 100 118 119 141 20 22 45 51
56 65 61 74 191 224 198 227 4 2 7 10 7 18 0 8 5 14 10 14 6 0 10 4 10 9 0 12
-80 9 -159 -7z"/>
<path d="M956 1270 l-77 -90 25 -27 c14 -15 26 -31 26 -36 0 -4 5 -5 10 -2 6
3 10 -1 10 -9 0 -9 9 -21 20 -28 11 -7 20 -17 20 -22 0 -5 8 -16 18 -25 9 -9
39 -43 66 -76 28 -33 57 -67 65 -76 9 -8 29 -32 45 -52 16 -20 34 -33 40 -30
13 9 -19 -41 -42 -66 -9 -9 -42 -46 -72 -81 -30 -36 -71 -83 -90 -105 -126
-142 -141 -163 -128 -177 7 -7 33 -38 58 -68 25 -30 54 -65 66 -78 l21 -23 49
58 c27 31 48 61 46 66 -1 5 2 6 7 3 5 -4 13 0 18 7 9 16 75 95 113 136 67 73
95 107 92 113 -1 5 2 8 6 8 7 0 149 160 165 187 4 6 -1 20 -11 30 -10 10 -47
52 -82 93 -36 41 -83 95 -105 120 -22 25 -65 74 -95 110 -91 106 -123 143
-157 180 -18 19 -33 38 -33 43 0 20 -24 -1 -94 -83z"/>
</g>
</svg>
